# xmcd
#
# Track frame offsets:
#	150
#	16954
#	38183
#	54313
#	77223
#	94399
#	113621
#	132010
#	151407
#	169992
#	195286
#	218155
#
# Disc length: 3161 seconds
#
# Revision: 1330288032
# Processed by: cddbd v1.5.2PL0 Copyright (c) Steve Scherf et al.
# Submitted via: EZCDAudioConverter 8.0.2.1
#
DISCID=950c570c
DTITLE=Hồng Ngọc - Vol 02. Trái Tim Bé Bỏng
DYEAR=2003
DGENRE=World Pop
TTITLE0=Hồng Ngọc - Anh đã đến rồi đi
TTITLE1=Hồng Ngọc - Mong chờ
TTITLE2=Hồng Ngọc - Tình như giấc mơ
TTITLE3=Hồng Ngọc - Đêm chia tay
TTITLE4=Hồng Ngọc - Trái Tim Bé Bỏng
TTITLE5=Hồng Ngọc - Giấc mơ mùa đông
TTITLE6=Hồng Ngọc - Chờ một tiếng yêu
TTITLE7=Hồng Ngọc - Nỗi nhớ trong mưa
TTITLE8=Hồng Ngọc - Mãi mình bên nhau
TTITLE9=Hồng Ngọc - Như lá thu phai
TTITLE10=Hồng Ngọc, Quang Dũng - Hà Nội có em
TTITLE11=Hồng Ngọc, Khang Việt - Giấc mơ xa
EXTD=
EXTT0=
EXTT1=
EXTT2=
EXTT3=
EXTT4=
EXTT5=
EXTT6=
EXTT7=
EXTT8=
EXTT9=
EXTT10=
EXTT11=
PLAYORDER=
